<svg width="268" height="245" viewBox="0 0 268 245" fill="none" xmlns="http://www.w3.org/2000/svg">
<path d="M73.8607 200.509C51.5033 191.398 18.2793 193.895 9.51457 171.314C0.761097 148.763 27.0053 128.006 37.183 106.017C45.1657 88.7693 47.3065 67.7488 62.6262 56.5624C77.6646 45.5814 98.0561 51.4473 116.351 48.208C138.251 44.3307 158.974 29.2899 180.237 35.7389C203.954 42.9321 223.738 61.6009 234.456 84.029C245.656 107.468 248.742 135.622 239.618 160.005C230.867 183.391 209.248 199.322 187.075 210.652C168.073 220.362 146.422 220.364 125.213 218.464C106.697 216.805 91.0756 207.524 73.8607 200.509Z" fill="#3E4B45"/>
</svg>
