<svg width="856" height="695" viewBox="0 0 856 695" fill="none" xmlns="http://www.w3.org/2000/svg">
<path d="M161.675 247.476C173.042 183.003 151.84 114.891 180.302 55.948C211.061 -7.75282 265.47 -55.642 325.827 -92.4702C393.48 -133.75 467.869 -178.332 546.361 -167.41C625.449 -156.405 695.804 -101.312 740.116 -34.8236C780.585 25.9 774.967 103.743 775.71 176.722C776.3 234.757 755.488 287.438 743.975 344.317C730.672 410.044 850.954 544.15 795.655 582.011C738.883 620.88 567.834 531.04 502.423 509.7C457.525 495.052 433.254 437.517 386.182 433.777C289.918 426.128 180.204 539.884 105.858 478.19C43.7253 426.631 147.652 327.011 161.675 247.476Z" fill="#EE704A"/>
</svg>
