<svg width="1119" height="1119" viewBox="0 0 1119 1119" fill="none" xmlns="http://www.w3.org/2000/svg">
<path d="M369.123 412.096C443.099 373.382 468.142 228.617 549.84 246.096C640.351 265.461 603.994 442.06 688.268 480.378C796.966 529.8 969.075 371.562 1038.88 468.454C1101.81 555.803 937.765 651.572 873.993 738.177C838.557 786.3 787.812 816.182 749.223 861.815C710.332 907.804 705.177 990.321 647.131 1006.44C588.836 1022.64 540.089 958.137 483.94 935.503C435.125 915.826 383.335 910.105 338.744 882.133C280.471 845.579 223.113 807.263 186.584 748.974C136.07 668.369 45.4414 569.925 90.72 486.362C137.415 400.186 282.28 457.542 369.123 412.096Z" fill="#3E4B45"/>
</svg>
